<svg width="132" height="40" viewBox="0 0 132 41" fill="none" xmlns="http://www.w3.org/2000/svg">
<path fill-rule="evenodd" clip-rule="evenodd" d="M129.552 19.9034C129.271 19.9042 128.991 19.8493 128.731 19.7418C128.47 19.6344 128.234 19.4764 128.035 19.2771C127.835 19.0779 127.678 18.8412 127.57 18.5807C127.463 18.3202 127.409 18.0411 127.41 17.7594C127.41 16.5827 128.358 15.6028 129.565 15.6028C129.847 15.602 130.126 15.6569 130.386 15.7644C130.647 15.8719 130.883 16.0298 131.083 16.2291C131.282 16.4283 131.44 16.665 131.547 16.9255C131.654 17.186 131.709 17.4651 131.708 17.7468C131.708 18.3184 131.481 18.8666 131.076 19.271C130.672 19.6754 130.124 19.9028 129.552 19.9034ZM129.565 15.8164C129.31 15.8144 129.057 15.8634 128.821 15.9605C128.585 16.0576 128.37 16.2009 128.191 16.3819C128.011 16.5628 127.869 16.7779 127.773 17.0145C127.678 17.251 127.63 17.5043 127.634 17.7594C127.634 18.8272 128.459 19.6877 129.552 19.6877C129.807 19.6894 130.06 19.6403 130.296 19.5432C130.532 19.4461 130.746 19.3031 130.925 19.1224C131.105 18.9417 131.247 18.7269 131.343 18.4908C131.439 18.2546 131.487 18.0017 131.484 17.7468C131.487 17.4933 131.441 17.2415 131.346 17.0064C131.251 16.7712 131.11 16.5574 130.931 16.3775C130.752 16.1977 130.539 16.0553 130.305 15.959C130.07 15.8626 129.819 15.8141 129.565 15.8164ZM130.038 17.9667L130.646 18.8167H130.135L129.59 18.0379H129.119V18.8167H128.691V16.566H129.697C130.218 16.566 130.562 16.834 130.562 17.2841C130.562 17.6526 130.348 17.8787 130.038 17.9667ZM129.678 16.9512H129.119V17.6631H129.678C129.957 17.6631 130.122 17.527 130.122 17.3071C130.122 17.0768 129.954 16.9512 129.678 16.9512ZM102.86 9.5812C102.28 9.58092 101.724 9.81073 101.315 10.2201C100.905 10.6294 100.674 11.1848 100.674 11.7639C100.674 12.3431 100.904 12.8987 101.313 13.3084C101.723 13.7181 102.278 13.9485 102.858 13.9488C103.437 13.9488 103.993 13.7186 104.403 13.3088C104.813 12.8991 105.043 12.3434 105.043 11.7639C105.043 11.1845 104.813 10.6288 104.403 10.219C103.993 9.80929 103.437 9.57911 102.858 9.57911M104.366 15.63H101.32C101.261 15.6306 101.205 15.6544 101.163 15.6964C101.121 15.7384 101.098 15.795 101.098 15.8541V29.141C101.098 29.2666 101.197 29.365 101.32 29.365H104.368C104.427 29.365 104.484 29.3414 104.526 29.2994C104.568 29.2574 104.592 29.2004 104.592 29.141V15.8541C104.592 15.7947 104.568 15.7377 104.526 15.6957C104.484 15.6536 104.425 15.63 104.366 15.63ZM111.139 15.6426V15.2239C111.139 13.9844 111.615 13.4316 112.681 13.4316C113.316 13.4316 113.825 13.5572 114.398 13.7499C114.432 13.7613 114.468 13.7644 114.503 13.7591C114.538 13.7537 114.572 13.74 114.6 13.719C114.629 13.6981 114.652 13.6706 114.668 13.6388C114.684 13.607 114.692 13.5718 114.692 13.5363V10.9715C114.691 10.9235 114.676 10.8769 114.647 10.8385C114.619 10.8 114.578 10.7718 114.532 10.7579C113.711 10.5071 112.857 10.3843 111.998 10.3936C109.185 10.3936 107.698 11.9785 107.698 14.9747V15.6196H106.234C106.175 15.6196 106.118 15.6429 106.076 15.6845C106.034 15.726 106.01 15.7825 106.01 15.8415V18.4734C106.01 18.5969 106.11 18.6974 106.234 18.6974H107.698V29.1452C107.698 29.2666 107.796 29.3671 107.92 29.3671H110.968C111.027 29.3666 111.083 29.3427 111.125 29.3008C111.166 29.2588 111.19 29.2022 111.19 29.1431V18.6953H114.034L118.393 29.1431C117.898 30.2381 117.412 30.458 116.748 30.458C116.21 30.458 115.645 30.2968 115.067 29.9806C115.04 29.9663 115.01 29.9574 114.98 29.9545C114.95 29.9517 114.92 29.9548 114.891 29.9639C114.861 29.9738 114.835 29.9898 114.812 30.0107C114.789 30.0316 114.771 30.057 114.759 30.0853L113.726 32.3486C113.702 32.3997 113.698 32.4581 113.716 32.5118C113.733 32.5654 113.771 32.6104 113.82 32.6376C114.899 33.2217 115.873 33.4709 117.075 33.4709C119.325 33.4709 120.569 32.424 121.664 29.6037L126.951 15.9483C126.965 15.9145 126.97 15.8777 126.966 15.8414C126.962 15.8051 126.95 15.7702 126.929 15.74C126.909 15.7097 126.881 15.685 126.849 15.668C126.816 15.6511 126.78 15.6423 126.744 15.6426H123.572C123.526 15.6431 123.481 15.6578 123.444 15.6848C123.406 15.7118 123.378 15.7497 123.363 15.7934L120.112 25.0708L116.552 15.7871C116.536 15.7448 116.508 15.7083 116.47 15.6825C116.433 15.6567 116.389 15.6428 116.344 15.6426H111.139ZM99.4581 15.63H96.1069V12.2026C96.1069 12.1733 96.1011 12.1442 96.0898 12.1172C96.0785 12.0901 96.062 12.0655 96.0411 12.0449C96.0203 12.0243 95.9956 12.008 95.9684 11.9969C95.9412 11.9859 95.9121 11.9804 95.8828 11.9806H92.8352C92.7765 11.9812 92.7204 12.0047 92.6788 12.0462C92.6373 12.0878 92.6138 12.1439 92.6132 12.2026V15.63H91.147C91.1177 15.63 91.0887 15.6359 91.0616 15.6471C91.0345 15.6584 91.0099 15.675 90.9893 15.6958C90.9687 15.7166 90.9524 15.7413 90.9413 15.7685C90.9303 15.7957 90.9248 15.8248 90.925 15.8541V18.4713C90.925 18.5948 91.0256 18.6953 91.147 18.6953H92.6132V25.4665C92.6132 28.2051 93.9747 29.5912 96.664 29.5912C97.7574 29.5912 98.6622 29.3671 99.5168 28.8835C99.5513 28.8641 99.58 28.8358 99.5999 28.8015C99.6198 28.7673 99.6301 28.7284 99.6299 28.6888V26.1972C99.6304 26.159 99.6211 26.1213 99.6028 26.0877C99.5845 26.0542 99.5578 26.0259 99.5253 26.0057C99.4929 25.9855 99.4558 25.974 99.4176 25.9723C99.3794 25.9707 99.3414 25.9789 99.3073 25.9962C98.7209 26.2914 98.1532 26.4275 97.5186 26.4275C96.5405 26.4275 96.1048 25.9857 96.1048 24.9912V18.6953H99.456C99.4855 18.6956 99.5148 18.69 99.5421 18.6788C99.5695 18.6677 99.5943 18.6512 99.6151 18.6303C99.636 18.6094 99.6525 18.5846 99.6637 18.5573C99.6748 18.53 99.6804 18.5008 99.6802 18.4713V15.8541C99.6804 15.8248 99.6749 15.7957 99.6639 15.7685C99.6528 15.7413 99.6365 15.7166 99.6159 15.6958C99.5952 15.675 99.5707 15.6584 99.5436 15.6471C99.5165 15.6359 99.4875 15.63 99.4581 15.63ZM83.391 15.3516C79.2857 15.3516 76.0664 18.5131 76.0664 22.5478C76.0664 26.5406 79.2627 29.6665 83.3407 29.6665C87.4607 29.6665 90.6883 26.5175 90.6883 22.4975C90.6883 18.4901 87.4837 15.3516 83.391 15.3516ZM83.391 26.5783C81.2064 26.5783 79.558 24.8237 79.558 22.4955C79.558 20.1609 81.1498 18.4671 83.3407 18.4671C85.54 18.4671 87.1947 20.2216 87.1947 22.5499C87.1947 24.8844 85.5965 26.5783 83.391 26.5783ZM68.7 15.3516C66.9825 15.3516 65.5749 16.0279 64.4146 17.4118V15.8541C64.4146 15.795 64.3912 15.7384 64.3497 15.6964C64.3081 15.6544 64.2516 15.6306 64.1925 15.63H61.145C61.0859 15.6306 61.0294 15.6544 60.9879 15.6964C60.9463 15.7384 60.923 15.795 60.923 15.8541V33.1694C60.923 33.2908 61.0235 33.3913 61.145 33.3913H64.1925C64.2513 33.3908 64.3074 33.3672 64.3489 33.3257C64.3904 33.2842 64.414 33.2281 64.4146 33.1694V27.7047C65.577 29.0049 66.9846 29.6414 68.7 29.6414C71.8878 29.6414 75.1155 27.1875 75.1155 22.4975C75.1155 17.8075 71.8899 15.3516 68.7 15.3516ZM71.5737 22.4975C71.5737 24.8844 70.1012 26.5531 67.9941 26.5531C65.91 26.5531 64.3392 24.809 64.3392 22.4975C64.3392 20.186 65.91 18.4419 67.9941 18.4419C70.0677 18.4419 71.5737 20.1463 71.5737 22.4975ZM53.9042 18.7079C50.5027 17.8955 49.8974 17.326 49.8974 16.1305C49.8974 14.9998 50.9614 14.2398 52.5449 14.2398C54.078 14.2398 55.6008 14.8156 57.1947 16.0048C57.2185 16.0224 57.2455 16.035 57.2741 16.0421C57.3028 16.0492 57.3326 16.0505 57.3618 16.0461C57.391 16.0416 57.419 16.0314 57.4443 16.016C57.4695 16.0007 57.4915 15.9805 57.5089 15.9567L59.1719 13.6138C59.2042 13.5675 59.2179 13.5107 59.2101 13.4548C59.2023 13.3989 59.1737 13.348 59.1301 13.3123C57.2324 11.788 55.0939 11.0489 52.5951 11.0489C48.9192 11.0489 46.3534 13.2515 46.3534 16.4068C46.3534 19.7882 48.5673 20.9859 52.394 21.9092C55.6489 22.6588 56.1998 23.2869 56.1998 24.4112C56.1998 25.6549 55.0897 26.4275 53.2989 26.4275C51.3133 26.4275 49.6942 25.7575 47.8803 24.1914C47.835 24.1528 47.7764 24.1333 47.717 24.137C47.6874 24.1392 47.6587 24.1475 47.6324 24.1611C47.6061 24.1748 47.5829 24.1936 47.5641 24.2165L45.6999 26.4317C45.6619 26.4759 45.643 26.5333 45.6473 26.5914C45.6516 26.6495 45.6788 26.7035 45.723 26.7416C47.7768 28.6016 50.4521 29.627 53.2235 29.6163C57.1821 29.6163 59.7417 27.4535 59.7417 24.1076C59.7417 21.279 58.0514 19.715 53.9042 18.7058M19.9351 0.638794C14.7078 0.638794 9.69463 2.71455 5.99837 6.40943C2.30212 10.1043 0.225586 15.1156 0.225586 20.341C0.225586 25.5663 2.30212 30.5777 5.99837 34.2725C9.69463 37.9674 14.7078 40.0432 19.9351 40.0432C25.1624 40.0432 30.1756 37.9674 33.8719 34.2725C37.5681 30.5777 39.6446 25.5663 39.6446 20.341C39.6446 15.1156 37.5681 10.1043 33.8719 6.40943C30.1756 2.71455 25.1624 0.638794 19.9351 0.638794ZM28.9751 29.0552C28.8911 29.1931 28.7808 29.3132 28.6503 29.4084C28.5198 29.5037 28.3718 29.5722 28.2148 29.6101C28.0577 29.6481 27.8947 29.6546 27.7352 29.6295C27.5756 29.6043 27.4225 29.5479 27.2848 29.4635C22.6559 26.6369 16.8331 25.9983 9.97143 27.5644C9.81424 27.6003 9.65151 27.6049 9.49255 27.5779C9.33358 27.5509 9.18149 27.4929 9.04495 27.4072C8.90842 27.3214 8.79011 27.2096 8.69679 27.0782C8.60347 26.9467 8.53697 26.7982 8.50107 26.6411C8.46518 26.4839 8.4606 26.3213 8.48759 26.1624C8.51458 26.0035 8.57262 25.8514 8.6584 25.7149C8.74417 25.5785 8.85599 25.4602 8.98749 25.3669C9.11898 25.2736 9.26757 25.2071 9.42476 25.1713C16.9316 23.4544 23.3722 24.1935 28.5667 27.3676C29.1448 27.7215 29.327 28.4773 28.9751 29.0552ZM31.3838 23.691C31.1707 24.0376 30.8287 24.2856 30.433 24.3806C30.0372 24.4756 29.6199 24.4098 29.2725 24.1977C23.9755 20.9419 15.899 19.9997 9.63212 21.9008C9.25083 21.9912 8.8494 21.9329 8.50965 21.7377C8.16989 21.5425 7.9174 21.2251 7.80362 20.8503C7.68984 20.4754 7.72334 20.0713 7.89731 19.7203C8.07127 19.3693 8.37259 19.0978 8.73985 18.9612C15.899 16.79 24.7965 17.8431 30.879 21.5784C31.0513 21.6839 31.2011 21.8223 31.3198 21.9857C31.4385 22.1491 31.5239 22.3343 31.5709 22.5307C31.618 22.7271 31.6259 22.9309 31.5941 23.1303C31.5624 23.3298 31.4916 23.521 31.3859 23.6931M31.5954 18.1049C25.2406 14.334 14.7595 13.9865 8.69586 15.829C8.46317 15.9032 8.21804 15.9304 7.97472 15.9091C7.7314 15.8877 7.49475 15.8183 7.27852 15.7047C7.06229 15.5912 6.87079 15.4358 6.71516 15.2476C6.55952 15.0595 6.44285 14.8422 6.37193 14.6086C6.301 14.375 6.27724 14.1296 6.30202 13.8867C6.32681 13.6438 6.39963 13.4082 6.51628 13.1937C6.63292 12.9792 6.79106 12.79 6.98149 12.6371C7.17192 12.4842 7.39085 12.3707 7.62556 12.3031C14.5857 10.1884 26.1601 10.5988 33.4721 14.937C33.8926 15.1863 34.1968 15.5924 34.3178 16.066C34.4388 16.5395 34.3666 17.0417 34.1172 17.4621C33.8678 17.8824 33.4615 18.1865 32.9878 18.3075C32.5141 18.4284 32.0117 18.3563 31.5912 18.107" fill="white"/>
</svg>
